<!DOCTYPE svg PUBLIC "-//W3C//DTD SVG 1.1//EN" "http://www.w3.org/Graphics/SVG/1.1/DTD/svg11.dtd">

<!-- Uploaded to: SVG Repo, www.svgrepo.com, Transformed by: SVG Repo Mixer Tools -->
<svg width="64px" height="64px" viewBox="-6.4 -6.4 32.80 32.80" version="1.1" xmlns="http://www.w3.org/2000/svg" xmlns:xlink="http://www.w3.org/1999/xlink" fill="#000000" transform="matrix(-1, 0, 0, 1, 0, 0)">

<g id="SVGRepo_bgCarrier" strokeWidth="0">

<path transform="translate(-6.4, -6.4), scale(2.05)" fill="#00356f" d="M9.166.33a2.25 2.25 0 00-2.332 0l-5.25 3.182A2.25 2.25 0 00.5 5.436v5.128a2.25 2.25 0 001.084 1.924l5.25 3.182a2.25 2.25 0 002.332 0l5.25-3.182a2.25 2.25 0 001.084-1.924V5.436a2.25 2.25 0 00-1.084-1.924L9.166.33z" strokewidth="0"/>

</g>

<g id="SVGRepo_tracerCarrier" strokeLinecap="round" strokeLinejoin="round"/>

<g id="SVGRepo_iconCarrier"> <title>arrow_left [#334]</title> <desc>Created with Sketch.</desc> <defs> </defs> <g id="Page-1" stroke="none" strokeWidth="1" fill="none" fillRule="evenodd"> <g id="Dribbble-Light-Preview" transform="translate(-385.000000, -6679.000000)" fill="#1dbbee"> <g id="icons" transform="translate(56.000000, 160.000000)"> <path d="M338.61,6539 L340,6537.594 L331.739,6528.987 L332.62,6528.069 L332.615,6528.074 L339.955,6520.427 L338.586,6519 C336.557,6521.113 330.893,6527.014 329,6528.987 C330.406,6530.453 329.035,6529.024 338.61,6539" id="arrow_left-[#334]"> </path> </g> </g> </g> </g>

</svg>